<?xml version="1.0" standalone="no"?>
<!DOCTYPE svg PUBLIC "-//W3C//DTD SVG 20010904//EN"
 "http://www.w3.org/TR/2001/REC-SVG-20010904/DTD/svg10.dtd">
<svg version="1.0" xmlns="http://www.w3.org/2000/svg"
 width="1200.000000pt" height="1200.000000pt" viewBox="0 0 1200.000000 1200.000000"
 preserveAspectRatio="xMidYMid meet">
<metadata>
Created by potrace 1.11, written by Peter Selinger 2001-2013
</metadata>
<g transform="translate(0.000000,1200.000000) scale(0.100000,-0.100000)"
fill="#000000" stroke="none">
<path d="M4120 9360 c-627 -61 -1249 -382 -1739 -895 -326 -342 -495 -719
-494 -1105 0 -204 44 -338 169 -527 128 -193 292 -313 436 -321 131 -8 291 62
480 210 179 141 268 237 268 290 0 39 -44 82 -171 169 -329 225 -471 496 -415
790 35 185 126 333 283 461 172 140 420 228 638 228 147 -1 395 -49 747 -145
383 -105 621 -141 883 -132 270 8 570 61 910 158 39 11 79 23 90 26 11 3 -59
-54 -155 -127 -724 -550 -1224 -1028 -1482 -1415 -125 -187 -247 -456 -364
-800 -121 -353 -177 -570 -275 -1060 -115 -580 -228 -944 -391 -1269 -224
-445 -535 -736 -889 -831 -250 -67 -512 -54 -694 33 -143 69 -234 161 -310
312 -68 136 -110 328 -120 560 -9 199 -24 250 -93 323 -64 66 -182 85 -304 47
-181 -56 -556 -293 -725 -459 -35 -33 -80 -86 -100 -118 -34 -51 -38 -64 -42
-134 -11 -243 198 -467 624 -670 310 -147 643 -234 1055 -275 184 -18 606 -15
780 6 260 31 493 82 722 156 535 174 943 424 1309 801 247 255 402 476 560
801 236 485 420 1097 654 2177 208 964 292 1249 460 1572 131 253 263 424 572
745 115 119 218 233 228 252 19 35 19 35 -4 60 -12 13 -41 31 -64 40 -77 29
-241 67 -318 73 -94 7 -130 -7 -252 -101 -217 -165 -461 -229 -732 -193 -149
21 -308 57 -560 129 -450 128 -619 159 -895 163 -107 2 -233 0 -280 -5z"/>
<path d="M9385 9364 c-513 -78 -896 -380 -1223 -966 -138 -245 -219 -442 -377
-909 -107 -315 -193 -530 -271 -679 -150 -283 -330 -459 -550 -539 -121 -44
-193 -51 -464 -49 -216 3 -250 1 -290 -15 -115 -46 -169 -113 -177 -221 -7
-79 8 -126 52 -165 57 -50 118 -62 295 -59 l155 2 48 -48 c58 -59 128 -200
151 -304 9 -40 19 -121 22 -180 7 -126 -3 -225 -82 -757 -75 -501 -81 -568
-66 -704 16 -147 51 -264 117 -396 149 -300 447 -537 803 -641 178 -51 248
-59 517 -58 223 1 266 4 395 27 273 49 511 130 765 261 316 164 643 383 1047
704 l156 124 7 66 c3 37 5 158 3 269 -3 217 -4 218 -53 163 -71 -79 -424 -364
-590 -476 -292 -198 -522 -305 -760 -355 -79 -17 -295 -17 -365 0 -137 33
-243 109 -295 210 -65 130 -74 277 -35 626 25 223 29 455 11 580 -30 202 -110
409 -210 544 -57 76 -188 206 -276 273 -131 99 -354 225 -538 304 l-89 38 49
17 c255 87 530 307 691 553 136 207 268 500 407 906 37 107 85 238 107 290
108 257 245 446 395 546 215 142 517 116 665 -59 29 -34 84 -93 121 -131 67
-68 69 -68 113 -63 84 9 184 109 329 327 98 148 163 265 200 357 31 77 30 131
-4 208 -42 95 -193 223 -356 300 -128 60 -202 76 -370 80 -82 2 -163 1 -180
-1z"/>
</g>
</svg>
